<svg width="48" height="42" viewBox="0 0 48 42" fill="none" xmlns="http://www.w3.org/2000/svg">
<path d="M46.8305 22.4041H45.1865C46.1155 21.48 47.2746 19.8864 47.4093 17.6032C47.4178 17.4593 47.3606 17.3186 47.2511 17.2141C47.1416 17.1102 46.9896 17.0508 46.8305 17.0508H44.9048C45.6875 16.0592 46.7535 14.3156 46.7535 12.1711C46.7535 11.8813 46.4939 11.6469 46.1738 11.6469H44.277C44.2792 10.025 43.9895 5.43198 40.7347 5.04876V4.54794C40.7347 2.04818 38.4915 0.0142822 35.7339 0.0142822L35.6577 0.0143137C35.6576 0.0143137 35.6575 0.0142822 35.6575 0.0142822C35.6571 0.0142822 35.6568 0.0143137 35.6565 0.0143137L9.96821 0.0296419C6.79934 0.0485818 4.22149 2.4009 4.22149 5.27385V31.5773H1.31445C0.994306 31.5773 0.734741 31.8118 0.734741 32.1016V36.6884C0.734741 39.5906 3.33891 41.9516 6.53977 41.9516H25.88H25.88C25.887 41.9516 25.8939 41.9516 25.9012 41.9511L26.3484 41.9362C29.517 41.9173 32.0949 39.565 32.0949 36.692V8.95258H37.0591C36.8396 10.0163 36.7991 11.0403 36.7999 11.6469H34.9028C34.5827 11.6469 34.3231 11.8813 34.3231 12.1711C34.3231 14.3156 35.3891 16.0592 36.1718 17.0508H34.2461C34.087 17.0508 33.935 17.1102 33.8255 17.2141C33.7159 17.3186 33.6588 17.4593 33.6673 17.6032C33.802 19.8864 34.9611 21.48 35.8904 22.4041H34.2461C33.926 22.4041 33.6664 22.6385 33.6664 22.9283C33.6664 26.7688 37.5221 28.3088 39.9586 28.6675V30.1276H34.7115C34.4027 30.1276 34.1479 30.3467 34.1326 30.6257L33.6695 39.0177C33.6316 39.7913 33.9367 40.5249 34.5283 41.0844C35.1202 41.6434 35.9173 41.9516 36.7733 41.9516H43.8903C44.7463 41.9516 45.5434 41.6434 46.1353 41.0844C46.7269 40.5249 47.032 39.7913 46.9938 39.0147L46.531 30.6257C46.5157 30.3467 46.2609 30.1276 45.9521 30.1276H41.118V28.6675C43.5545 28.3088 47.4102 26.7688 47.4102 22.9283C47.4102 22.6385 47.1506 22.4041 46.8305 22.4041ZM45.8358 39.0638C45.8596 39.5486 45.6682 40.0088 45.2974 40.3595C44.9266 40.7102 44.4267 40.9032 43.8903 40.9032H36.7733C36.2369 40.9032 35.737 40.7102 35.3662 40.3595C34.9954 40.0088 34.804 39.5486 34.8275 39.0669L35.2629 31.176H45.4007L45.8358 39.0638ZM6.53977 40.9032C3.97806 40.9032 1.89416 39.0126 1.89416 36.6884V32.6258H20.0752V36.6884C20.0752 38.4106 20.9923 39.9423 22.4068 40.9032H6.53977ZM30.9354 36.692C30.9354 38.9906 28.8745 40.873 26.3235 40.8883L25.8775 40.903C23.3172 40.9019 21.2346 39.0118 21.2346 36.6884V32.1016C21.2346 31.8118 20.9751 31.5773 20.6549 31.5773H5.38092V5.27385C5.38092 2.97529 7.44217 1.09292 9.97217 1.07807L32.5656 1.0646C31.5692 1.84808 30.9354 2.99944 30.9354 4.28429V36.692ZM32.0949 7.90415V4.28429C32.0949 2.50822 33.6925 1.06326 35.6564 1.06275L35.7342 1.06272C37.8523 1.06272 39.5753 2.62615 39.5753 4.54794V5.23517C38.4187 5.67358 37.7355 6.73173 37.3407 7.90415H32.0949ZM41.118 27.5969V13.239C41.118 12.9492 40.8584 12.7148 40.5383 12.7148C40.2182 12.7148 39.9586 12.9492 39.9586 13.239V27.5969C38.5362 27.3448 35.2068 26.44 34.8558 23.4525H37.3924C37.6477 23.4525 37.8727 23.3015 37.9469 23.0808C38.0213 22.8602 37.9271 22.6211 37.715 22.4926C37.6898 22.4773 35.3184 21.0075 34.8824 18.0992H37.3924C37.6262 18.0992 37.8368 17.9718 37.9268 17.7767C38.0171 17.5817 37.9684 17.3564 37.8042 17.2059C37.7824 17.186 35.758 15.3021 35.5077 12.6953H37.3924C37.5514 12.6953 37.7034 12.6359 37.813 12.532C37.9222 12.4276 37.9797 12.2868 37.9712 12.1434C37.9678 12.0854 37.7162 6.35182 40.5383 6.07649C43.3607 6.35182 43.109 12.0854 43.1057 12.1434C43.0972 12.2868 43.1546 12.4276 43.2639 12.532C43.3734 12.6359 43.5254 12.6953 43.6845 12.6953H45.5689C45.3186 15.3021 43.2945 17.1865 43.2727 17.2064C43.1085 17.3564 43.0598 17.5817 43.1501 17.7767C43.2401 17.9718 43.4507 18.0992 43.6845 18.0992H46.1939C45.7574 20.9901 43.3859 22.4783 43.3618 22.4926C43.1498 22.6211 43.0556 22.8602 43.13 23.0808C43.2042 23.3015 43.4295 23.4525 43.6845 23.4525H46.2208C45.8698 26.44 42.5404 27.3448 41.118 27.5969Z" fill="#3461A4"/>
</svg>
