<svg width="302" height="376" viewBox="0 0 302 376" fill="none" xmlns="http://www.w3.org/2000/svg">
<path d="M297.307 16.2214C268.033 1.05099 150.893 1.05099 150.893 1.05099C150.893 1.05099 34.1272 1.05099 4.9378 16.2214C4.9378 16.2214 -3.4026 177.883 4.9378 248.617C9.94043 290.946 61.2768 327.859 101.645 350.677C112.819 356.995 123.163 362.237 131.463 366.188C143.266 371.816 150.897 374.911 150.897 374.911C150.897 374.911 151.272 374.782 151.941 374.483C155.779 372.892 169.871 366.877 187.931 357.423C229.419 335.593 291.76 295.416 297.307 248.617C305.648 177.883 297.307 16.2214 297.307 16.2214ZM70.1614 229.882C70.1614 229.882 68.4522 269.848 64.9895 289.355C63.8648 295.885 65.1991 302.378 67.4928 308.177C43.5157 289.742 22.9569 267.094 20.0787 242.344C19.079 233.791 18.3292 223.78 17.8253 212.822C20.3286 215.875 23.872 218.579 28.8343 220.129C28.8343 220.129 23.6624 197.053 32.2527 198.815C32.2527 198.815 43.4713 196.152 47.7645 188.16C47.7685 188.155 72.7454 197.049 70.1614 229.882ZM191.845 335.722C191.845 335.701 191.845 335.676 191.849 335.656C191.95 332.694 191.26 329.778 190.035 327.098C187.935 322.496 183.44 313.141 179.925 309.095C178.841 307.849 178.139 306.295 178.196 304.621C178.357 299.586 180.102 288.828 190.765 277.844C190.765 277.844 219.204 252.962 216.62 239.64C216.62 239.64 229.548 236.977 232.967 240.542C232.967 240.542 246.769 238.78 252.816 240.542C258.822 242.303 271.75 252.102 275.209 250.295C275.209 250.295 277.377 251.284 280.086 252.015C269.452 287.079 225.541 317.158 191.845 335.722H191.845ZM284.089 219.738C281.755 217.803 278.627 216.556 274.33 216.556C262.277 216.556 262.277 218.363 252.812 218.363C243.302 218.363 234.712 213.894 234.712 213.894C234.712 213.894 252.324 190.789 248.934 174.032C248.676 172.748 248.66 171.44 249.051 170.189C250.333 166.106 253.787 156.934 259.939 153.125C261.833 151.953 263.244 150.121 263.478 147.853C264.357 139.321 267.013 122.302 270.867 119.822C270.867 119.822 273.919 112.067 272.617 109.163C271.057 105.678 269.585 99.4759 260.523 102.932C258.415 103.738 246.684 113.205 244.649 116.823C242.153 121.259 239.005 127.598 239.005 131.337C239.005 131.337 237.731 135.828 238.808 143.064C238.933 143.911 226.077 179.291 218.321 181.056C218.321 181.056 205.394 157.079 195.929 154.413C195.929 154.413 184.754 153.553 182.166 150.89C182.166 150.89 190.757 143.799 200.266 146.42C200.266 146.42 201.1 127.814 205.394 127.814C205.394 127.814 192.506 126.913 186.459 129.576C186.459 129.576 168.36 124.246 183.875 110.924C183.875 110.924 189.047 113.587 192.506 113.587C192.506 113.587 195.924 118.917 195.924 122.481C195.924 122.481 200.262 122.481 200.262 120.674L201.971 122.481C201.971 122.481 207.143 115.348 207.143 111.822C207.143 111.822 217.483 98.4997 216.193 92.7422C216.193 92.7422 206.684 85.6098 194.635 85.6098C194.635 85.6098 191.216 74.9963 177.414 72.3295C177.414 72.3295 161.902 59.8675 157.605 59.8675L161.902 64.3372C161.902 64.3372 130.459 54.11 124.453 62.1023C124.453 62.1023 137.38 64.765 137.38 69.1932C137.38 69.1932 116.697 63.8636 111.525 72.7615C111.525 72.7615 118.406 71.0002 120.115 72.7615C120.115 72.7615 95.1342 83.4165 93.425 89.6059C93.425 89.6059 97.7222 87.8447 99.4717 89.6059C99.4717 89.6059 92.5503 95.837 92.5503 98.4997C92.5503 98.4997 96.8878 96.7384 96.8878 98.4997C96.8878 98.4997 83.96 113.583 85.6692 119.814C85.6692 119.814 88.2531 115.344 94.2998 115.344C94.2998 115.344 89.9623 129.567 83.0812 133.996C83.0812 133.996 87.3783 133.996 89.9623 131.333C89.9623 131.333 84.7904 149.079 71.0281 152.647C71.0281 152.647 74.4908 154.408 78.784 154.408C78.784 154.408 86.5399 157.977 86.5399 162.401C86.5399 162.401 96.005 158.878 98.5929 160.639C98.5929 160.639 102.056 183.715 109.812 183.715C109.812 183.715 115.818 204.128 121.865 206.79C121.865 206.79 123.574 221.873 126.162 224.536C126.162 224.536 127.871 260.074 121.865 266.263C121.865 266.263 97.2183 293.293 95.2592 313.49C95.1342 314.952 93.8846 315.941 92.4656 315.766C89.797 315.38 85.9191 314.35 84.7944 311.554C84.7944 311.554 74.4949 296.471 77.9133 276.918C77.9133 276.918 82.15 250.715 81.0374 234.56C80.8358 231.615 80.6665 228.674 80.594 225.72C80.3602 216.22 77.1312 192.7 52.102 180.142C52.102 180.142 40.8833 166.862 27.9555 171.29C22.9529 173.01 19.3652 176.965 16.8619 181.218C15.9428 114.052 20.0747 33.9507 20.0747 33.9507C46.2206 20.3713 150.933 20.3712 150.933 20.3712C150.933 20.3712 255.936 20.3713 282.166 33.9507C282.17 33.9714 288.177 149.868 284.089 219.738Z" fill="#5777A8" stroke="#5777A8"/>
</svg>
