<svg width="125" height="130" viewBox="0 0 125 130" fill="none" xmlns="http://www.w3.org/2000/svg">
    <g clip-path="url(#clip0)">
        <path d="M13.2125 53.9003C14.189 54.0819 15.2225 54.1796 16.2529 54.1796C17.7747 54.1796 19.2812 53.9506 20.6079 53.4751C17.9182 60.7559 12.8251 67.4765 3.86663 72.1016C3.48475 72.2986 3.20198 72.6579 3.08538 73.0895C2.97023 73.5211 3.03436 73.9843 3.2632 74.3629L14.9368 93.7513C15.2662 94.2991 15.8783 94.5807 16.4891 94.4507L22.4009 93.202C23.22 97.8284 26.536 110.163 38.6527 111.244C53.8316 112.598 60.1079 124.403 61.1981 126.718C61.2404 126.928 61.322 127.132 61.4372 127.315C61.7126 127.762 62.2272 128.03 62.7315 128.03C63.2358 128.03 63.7051 127.762 63.9806 127.315C64.1103 127.108 64.1876 126.874 64.2138 126.634C65.4105 124.132 71.7159 112.582 86.7199 111.244C98.8351 110.163 102.153 97.8284 102.973 93.202L108.885 94.4507C109.494 94.5792 110.108 94.2991 110.437 93.7513L122.109 74.3629C122.338 73.9843 122.402 73.5211 122.287 73.0895C122.171 72.6579 121.888 72.2986 121.506 72.1016C113.269 67.8487 107.634 61.5947 104.631 53.428C105.989 53.9376 107.547 54.1796 109.12 54.1796C110.15 54.1796 111.184 54.0819 112.16 53.9003C116.737 53.0517 121.812 50.1687 122.335 44.622C122.386 44.085 122.172 43.5571 121.77 43.2247L112.794 35.813C114.607 32.7123 115.445 29.5038 115.292 26.2161C114.861 16.9524 106.683 10.6601 106.336 10.397C106.318 10.3837 106.297 10.3825 106.279 10.3701C106.259 10.3562 106.247 10.3346 106.226 10.3216L93.2221 2.18966C92.6478 1.83035 91.9132 1.91882 91.4278 2.4074C91.3185 2.51897 80.2542 13.5077 62.6411 13.5077C45.1752 13.5077 34.0526 2.51744 33.9433 2.40587C33.4594 1.91882 32.7262 1.82957 32.1505 2.18966L19.1462 10.3216C19.1252 10.3347 19.1133 10.3564 19.0932 10.3704C19.0754 10.3826 19.0544 10.3839 19.0369 10.397C18.69 10.6601 10.5116 16.9524 10.0802 26.2161C9.92714 29.5038 10.7652 32.7123 12.5784 35.813L3.60281 43.2247C3.20053 43.5571 2.98626 44.085 3.03728 44.622C3.56054 50.1687 8.63575 53.0517 13.2125 53.9003ZM38.9034 108.103C26.5622 107.002 25.1819 91.8439 25.128 91.1999C25.0916 90.7529 24.8773 90.3428 24.5377 90.0735C24.2768 89.8673 23.9605 89.7573 23.6398 89.7573C23.5422 89.7573 23.4445 89.7673 23.3483 89.7881L16.9074 91.1484L6.66077 74.1321C11.9699 71.1332 15.921 67.4272 18.84 63.3341H61.1938V120.862C57.6881 115.992 50.746 109.16 38.9034 108.103ZM118.712 74.1321L108.467 91.1484L102.026 89.7881C101.606 89.6988 101.175 89.8035 100.835 90.0735C100.495 90.3436 100.281 90.7537 100.246 91.2015C100.233 91.3592 98.8497 106.999 86.4692 108.103C74.6266 109.16 67.6845 115.992 64.1788 120.862V63.3341H106.532C109.452 67.4272 113.403 71.1332 118.712 74.1321ZM119.228 45.1275C118.433 48.399 114.881 50.1964 111.644 50.7965C108.031 51.4652 104.474 50.6588 103.719 48.9961C103.061 47.5458 104.505 44.9782 107.583 42.126C108.91 40.898 110.066 39.6477 111.052 38.3759L119.228 45.1275ZM112.312 26.3877C112.446 29.3699 111.53 32.3237 109.585 35.2136C109.573 35.2306 109.561 35.2475 109.55 35.2644C108.522 36.7809 107.209 38.2805 105.616 39.7578C104.193 41.0754 103.144 42.2842 102.377 43.3913C102.137 41.1097 102.028 38.7347 102.088 36.2408C102.321 26.6229 104.838 18.0603 106.11 14.3093C108.284 16.4269 112.062 20.8667 112.312 26.3877ZM92.6361 5.48583L103.616 12.3521C101.582 18.1311 94.2635 42.0076 104.53 60.1826H64.1788V16.6122C79.4362 16.1217 89.6903 8.10663 92.6361 5.48583ZM32.7364 5.48583C35.6783 8.10115 45.9117 16.0925 61.1938 16.6095V60.1826H20.8426C31.1091 42.0076 23.791 18.1311 21.7567 12.3521L32.7364 5.48583ZM13.0609 26.3877C13.3104 20.8694 17.0845 16.4311 19.2597 14.3122C20.8196 18.9481 24.2423 30.9215 22.9235 43.2825C22.1634 42.2056 21.1322 41.0315 19.7569 39.7578C18.1638 38.2805 16.8505 36.7809 15.823 35.2644C15.8113 35.2475 15.7996 35.2306 15.788 35.2136C13.8421 32.3237 12.9268 29.3699 13.0609 26.3877ZM14.3202 38.3759C15.307 39.6477 16.4628 40.898 17.7892 42.126C20.8676 44.9782 22.312 47.5458 21.6532 48.9961C20.8967 50.6596 17.3417 51.4659 13.7285 50.7965C10.4912 50.1964 6.93916 48.399 6.14478 45.1275L14.3202 38.3759Z" fill="white"/>
    </g>
    <defs>
        <clipPath id="clip0">
            <rect width="125" height="130" fill="white"/>
        </clipPath>
    </defs>
</svg>
