<svg width="298" height="361" viewBox="0 0 298 361" fill="none" xmlns="http://www.w3.org/2000/svg">
<path d="M294.047 15.11C265.007 0.494003 148.787 0.494003 148.787 0.494003C148.787 0.494003 32.9185 0.494003 3.95853 15.11C3.95853 15.11 -4.33747 170.778 3.95853 238.874C4.76253 245.51 6.77053 251.99 9.79453 258.306C37.5225 316.898 148.791 360.498 148.791 360.498C148.791 360.498 263.323 315.746 289.231 256.006C291.695 250.414 293.327 244.71 294.047 238.874C302.347 170.778 294.047 15.11 294.047 15.11ZM29.2825 229.45C31.3425 227.362 41.6745 223.242 41.6745 223.242H31.3425C31.3425 223.242 31.3425 212.882 35.4665 212.882C35.4665 212.882 27.1945 208.762 18.9265 212.882C18.9265 212.882 18.9265 210.822 21.0145 208.762L16.8665 207.398C16.6505 203.302 16.4665 199.074 16.3025 194.71C21.8145 195.434 31.9065 196.906 33.4065 198.402C35.4665 200.49 31.3465 192.218 31.3465 192.218C31.3465 192.218 45.8265 200.49 52.0385 200.49C52.0385 200.49 49.9505 200.49 49.9505 196.342H54.0985L70.6385 217.03V219.09C70.6385 219.09 54.0985 235.658 49.9465 235.658C45.8265 235.658 35.4665 235.658 35.4665 235.658C35.4665 235.658 27.1945 231.51 29.2825 229.45ZM207.167 299.766C205.107 299.766 209.227 291.494 209.227 291.494C207.167 289.434 190.623 291.494 190.623 291.494C190.623 289.434 192.683 285.286 192.683 285.286C186.475 283.226 176.143 293.582 176.143 293.582C169.935 295.642 167.871 293.582 157.515 291.494C147.183 289.434 140.975 285.286 128.555 285.286C116.163 285.286 103.743 289.434 103.743 289.434C103.743 289.434 72.7225 285.286 70.6345 283.226C68.5745 281.166 68.5745 279.102 68.5745 279.102C72.7225 277.014 76.8465 277.014 76.8465 277.014C74.7865 274.954 64.4265 270.806 64.4265 270.806C64.4265 266.686 76.8465 258.414 76.8465 258.414C64.4265 256.326 49.9465 264.622 49.9465 264.622L45.8265 262.534L43.7665 256.326C45.8265 252.206 80.9985 250.142 80.9985 250.142C80.9985 250.142 72.7265 248.054 74.7905 245.994C76.8505 243.934 91.3305 245.994 91.3305 245.994L89.2705 241.846C91.3305 237.726 103.751 237.726 103.751 237.726C109.959 258.414 182.363 272.898 203.027 272.898C223.719 272.898 219.595 279.106 221.655 285.29C223.707 291.494 207.167 299.766 207.167 299.766ZM279.035 232.85C277.163 248.242 267.955 262.802 255.239 275.97C253.767 272.706 252.671 269.358 252.671 266.682C252.671 258.41 257.335 249.846 260.943 241.842C272.019 217.25 269.319 199.818 249.567 177.15C233.131 158.306 186.495 159.462 172.015 153.25C160.987 148.538 150.291 134.298 146.811 127.926C145.391 125.33 145.019 122.226 146.167 119.522C147.183 117.058 149.111 115.158 151.199 113.366C159.655 106.218 177.455 103.946 182.835 103.41C183.879 103.302 184.843 102.846 185.567 102.098L189.155 98.538C190.091 97.574 190.627 96.318 190.627 94.978V89.518C190.627 87.778 189.691 86.198 188.163 85.37L169.479 75.174C168.487 74.638 167.871 73.594 167.871 72.47V72.094C167.871 70.89 167.255 69.766 166.239 69.122L145.119 55.686C145.119 55.686 142.871 49.662 144.611 44.47C144.827 43.854 144.343 43.186 143.675 43.13C140.195 42.942 131.391 43.158 128.955 50.114C128.635 50.998 127.803 51.614 126.867 51.722C122.343 52.202 109.979 53.782 106.659 56.406C105.803 57.074 104.651 57.21 103.635 56.806C99.7785 55.362 91.7785 53.138 87.1985 57.742C81.4185 63.522 79.2225 65.718 82.2985 74.362C82.7545 75.622 82.5385 77.066 81.7345 78.162C75.9545 86.03 55.6905 113.386 48.4385 128.51C46.7265 132.07 45.9225 136.006 45.9745 139.966C46.0825 146.578 45.3065 160.146 37.5425 163.254C37.5425 163.254 31.1985 167.99 15.7545 171.954C14.9625 107.718 18.9745 32.186 18.9745 32.186C44.9105 19.126 148.815 19.126 148.815 19.126C148.815 19.126 253.015 19.126 279.031 32.186C279.035 32.186 286.499 171.77 279.035 232.85Z" fill="#5777A8"/>
</svg>
