<svg width="48" height="42" viewBox="0 0 48 42" fill="none" xmlns="http://www.w3.org/2000/svg">
    <path d="M25.264 7.8703H10.3882C10.0681 7.8703 9.80853 8.10476 9.80853 8.39451C9.80853 8.68427 10.0681 8.91873 10.3882 8.91873H25.264C25.5841 8.91873 25.8437 8.68426 25.8437 8.39451C25.8437 8.10477 25.5841 7.8703 25.264 7.8703Z" fill="#3461A4"/>
    <path d="M25.264 12.7147H10.3882C10.0681 12.7147 9.80853 12.9492 9.80853 13.2389C9.80853 13.5287 10.0681 13.7632 10.3882 13.7632H25.264C25.5841 13.7632 25.8437 13.5287 25.8437 13.2389C25.8437 12.9492 25.5841 12.7147 25.264 12.7147Z" fill="#3461A4"/>
    <path d="M25.264 17.5596H10.3882C10.0681 17.5596 9.80853 17.7941 9.80853 18.0838C9.80853 18.3736 10.0681 18.6081 10.3882 18.6081H25.264C25.5841 18.6081 25.8437 18.3736 25.8437 18.0838C25.8437 17.7941 25.5841 17.5596 25.264 17.5596Z" fill="#3461A4"/>
    <path d="M25.264 22.404H10.3882C10.0681 22.404 9.80853 22.6385 9.80853 22.9282C9.80853 23.218 10.0681 23.4524 10.3882 23.4524H25.264C25.5841 23.4524 25.8437 23.218 25.8437 22.9282C25.8437 22.6385 25.5841 22.404 25.264 22.404Z" fill="#3461A4"/>
    <path d="M25.264 27.249H10.3882C10.0681 27.249 9.80853 27.4834 9.80853 27.7732C9.80853 28.0629 10.0681 28.2974 10.3882 28.2974H25.264C25.5841 28.2974 25.8437 28.0629 25.8437 27.7732C25.8437 27.4834 25.5841 27.249 25.264 27.249Z" fill="#3461A4"/>
    <path d="M46.8305 22.404H45.1865C46.1155 21.48 47.2746 19.8863 47.4093 17.6031C47.4178 17.4593 47.3606 17.3185 47.2511 17.2141C47.1416 17.1101 46.9896 17.0507 46.8305 17.0507H44.9048C45.6875 16.0591 46.7535 14.3155 46.7535 12.171C46.7535 11.8813 46.4939 11.6468 46.1738 11.6468H44.277C44.2792 10.0249 43.9895 5.43192 40.7347 5.0487V4.54788C40.7347 2.04812 38.4915 0.0142212 35.7339 0.0142212L35.6577 0.0142527C35.6576 0.0142527 35.6575 0.0142212 35.6575 0.0142212C35.6571 0.0142212 35.6568 0.0142527 35.6565 0.0142527L9.96821 0.0295808C6.79934 0.0485208 4.22149 2.40084 4.22149 5.27379V31.5773H1.31445C0.994306 31.5773 0.734741 31.8117 0.734741 32.1015V36.6884C0.734741 39.5905 3.33891 41.9515 6.53977 41.9515H25.88H25.88C25.887 41.9515 25.8939 41.9515 25.9012 41.951L26.3484 41.9362C29.517 41.9172 32.0949 39.5649 32.0949 36.692V8.95252H37.0591C36.8396 10.0163 36.7991 11.0402 36.7999 11.6468H34.9028C34.5827 11.6468 34.3231 11.8813 34.3231 12.171C34.3231 14.3155 35.3891 16.0591 36.1718 17.0507H34.2461C34.087 17.0507 33.935 17.1101 33.8255 17.2141C33.7159 17.3185 33.6588 17.4593 33.6673 17.6031C33.802 19.8863 34.9611 21.48 35.8904 22.404H34.2461C33.926 22.404 33.6664 22.6385 33.6664 22.9282C33.6664 26.7687 37.5221 28.3088 39.9586 28.6674V30.1275H34.7115C34.4027 30.1275 34.1479 30.3466 34.1326 30.6256L33.6695 39.0177C33.6316 39.7912 33.9367 40.5248 34.5283 41.0843C35.1202 41.6434 35.9173 41.9515 36.7733 41.9515H43.8903C44.7463 41.9515 45.5434 41.6434 46.1353 41.0843C46.7269 40.5248 47.032 39.7912 46.9938 39.0146L46.531 30.6256C46.5157 30.3466 46.2609 30.1275 45.9521 30.1275H41.118V28.6674C43.5545 28.3088 47.4102 26.7687 47.4102 22.9282C47.4102 22.6385 47.1506 22.404 46.8305 22.404ZM45.8358 39.0637C45.8596 39.5485 45.6682 40.0088 45.2974 40.3594C44.9266 40.7101 44.4267 40.9031 43.8903 40.9031H36.7733C36.2369 40.9031 35.737 40.7101 35.3662 40.3594C34.9954 40.0088 34.804 39.5485 34.8275 39.0668L35.2629 31.1759H45.4007L45.8358 39.0637ZM6.53977 40.9031C3.97806 40.9031 1.89416 39.0126 1.89416 36.6884V32.6257H20.0752V36.6884C20.0752 38.4105 20.9923 39.9422 22.4068 40.9031H6.53977ZM30.9354 36.692C30.9354 38.9905 28.8745 40.8729 26.3235 40.8883L25.8775 40.903C23.3172 40.9018 21.2346 39.0118 21.2346 36.6884V32.1015C21.2346 31.8117 20.9751 31.5773 20.6549 31.5773H5.38092V5.27379C5.38092 2.97523 7.44217 1.09286 9.97217 1.07801L32.5656 1.06454C31.5692 1.84802 30.9354 2.99938 30.9354 4.28423V36.692ZM32.0949 7.90409V4.28423C32.0949 2.50815 33.6925 1.0632 35.6564 1.06269L35.7342 1.06265C37.8523 1.06265 39.5753 2.62609 39.5753 4.54788V5.23511C38.4187 5.67352 37.7355 6.73167 37.3407 7.90409H32.0949ZM41.118 27.5969V13.2389C41.118 12.9492 40.8584 12.7147 40.5383 12.7147C40.2182 12.7147 39.9586 12.9492 39.9586 13.2389V27.5969C38.5362 27.3448 35.2068 26.4399 34.8558 23.4524H37.3924C37.6477 23.4524 37.8727 23.3014 37.9469 23.0808C38.0213 22.8601 37.9271 22.6211 37.715 22.4926C37.6898 22.4772 35.3184 21.0075 34.8824 18.0992H37.3924C37.6262 18.0992 37.8368 17.9717 37.9268 17.7767C38.0171 17.5816 37.9684 17.3564 37.8042 17.2059C37.7824 17.1859 35.758 15.302 35.5077 12.6952H37.3924C37.5514 12.6952 37.7034 12.6359 37.813 12.5319C37.9222 12.4275 37.9797 12.2867 37.9712 12.1434C37.9678 12.0853 37.7162 6.35176 40.5383 6.07643C43.3607 6.35176 43.109 12.0853 43.1057 12.1434C43.0972 12.2867 43.1546 12.4275 43.2639 12.5319C43.3734 12.6359 43.5254 12.6952 43.6845 12.6952H45.5689C45.3186 15.302 43.2945 17.1864 43.2727 17.2064C43.1085 17.3564 43.0598 17.5816 43.1501 17.7767C43.2401 17.9717 43.4507 18.0992 43.6845 18.0992H46.1939C45.7574 20.99 43.3859 22.4782 43.3618 22.4926C43.1498 22.6211 43.0556 22.8601 43.13 23.0808C43.2042 23.3014 43.4295 23.4524 43.6845 23.4524H46.2208C45.8698 26.4399 42.5404 27.3448 41.118 27.5969Z" fill="#3461A4"/>
</svg>
