<svg width="298" height="361" viewBox="0 0 298 361" fill="none" xmlns="http://www.w3.org/2000/svg">
<path d="M294.172 15.11C265.132 0.494004 148.888 0.494003 148.888 0.494003C148.888 0.494003 33.0436 0.494004 4.0836 15.11C4.0836 15.11 -4.2124 170.778 4.0836 238.874C5.0756 247.01 7.8836 254.906 12.0876 262.562C43.0036 319.01 148.888 360.498 148.888 360.498C148.888 360.498 198.056 341.282 239.276 311.222C266.844 291.122 290.852 266.174 294.172 238.874C302.472 170.778 294.172 15.11 294.172 15.11ZM152.904 250.434L146.696 256.618C139.016 255.654 137.14 259.162 137.356 263.202L131.252 265.478L125.9 262.802H117.872L117.764 262.694C117.632 260.286 113.64 248.374 113.64 248.374L138.48 234.99C139.736 234.322 141.236 234.374 142.416 235.178C145.976 237.586 153.416 242.674 154.968 244.226C157.024 246.286 152.904 250.434 152.904 250.434ZM252.016 279.37C251.936 279.45 251.856 279.502 251.776 279.558C243.692 287.374 234.46 294.682 224.904 301.29L219.576 297.598H195.488C195.488 297.598 190.136 289.57 184.78 284.214C182.076 281.51 173.888 274.686 166.444 268.582C166.284 264.298 161.172 256.618 161.172 256.618V250.434C161.172 250.434 167.356 235.954 175.624 231.83C183.896 227.71 188.016 248.37 188.016 248.37L190.076 244.222C194.224 252.494 202.496 258.674 204.556 260.762C206.616 262.822 204.556 269.006 204.556 269.006C204.556 269.006 206.616 266.946 208.676 264.882C210.736 262.822 223.128 281.422 223.128 281.422V271.09C227.732 275.666 231.156 281.37 232.656 284.046C232.2 280.754 233.46 273.154 233.46 273.154C233.46 273.154 237.608 277.274 241.732 279.338C244.972 280.97 249.412 280.062 251.232 279.578C248.768 279.202 244.488 270.854 250 269.006C254.068 267.666 256.372 270.746 258.62 272.43C256.532 274.786 254.284 277.114 251.928 279.39C251.964 279.37 251.992 279.37 252.016 279.37ZM279.16 232.85C277.848 243.69 272.896 254.13 265.616 263.926C256.972 255.066 232.856 229.774 239.68 229.774C247.952 229.774 256.22 225.626 256.22 225.626C256.22 225.626 245.888 223.566 252.072 221.506C252.42 221.398 252.74 221.29 253.036 221.21C255.5 220.434 256.088 217.17 253.972 215.75C244.9 209.594 222.524 201.378 221.156 200.87C247.948 204.966 254.132 198.782 256.22 196.722C258.28 194.662 254.132 192.574 254.132 192.574C227.284 198.782 208.684 186.39 208.684 186.39C221.076 184.33 227.288 178.118 227.288 178.118C202.504 182.238 177.692 161.578 177.692 161.578C200.416 161.578 216.956 151.246 216.956 151.246C204.564 151.246 198.352 147.122 198.352 147.122C221.076 145.062 247.948 126.458 247.948 126.458C240.988 128.974 235.556 126.458 235.556 126.458C247.948 122.334 250.008 109.942 250.008 109.942C246.34 115.59 225.224 122.334 225.224 122.334C214.892 122.334 219.016 118.186 219.016 118.186C262.404 105.794 256.22 89.278 256.22 89.278C254.132 95.462 252.072 93.398 252.072 93.398C254.132 87.214 252.072 83.066 252.072 83.066C249.448 88.018 190.136 104.882 174.076 104.882C163.476 104.882 126.032 122.334 126.032 122.334L113.64 114.062C113.64 62.406 64.0676 91.338 64.0676 91.338C53.7356 91.338 35.1356 97.522 31.0116 101.67C26.8636 105.79 32.0276 110.958 32.0276 110.958C44.4196 98.566 69.2316 117.166 69.2316 117.166C37.3796 188.362 95.5676 210.286 106.704 213.762C107.696 214.058 108.364 214.966 108.392 216.01C108.632 223.854 115.7 238.038 115.7 238.038L105.396 246.282H99.1876C86.5556 238.386 82.3796 243.766 81.0956 246.738H75.0476L67.0196 252.09C67.0196 252.09 69.6956 254.766 61.6676 252.09C53.6396 249.414 45.6076 252.09 45.6076 252.09L28.2636 257.522C23.3916 249.626 20.1276 241.354 19.1076 232.842C11.6396 171.762 19.1076 32.178 19.1076 32.178C45.0436 19.118 148.948 19.118 148.948 19.118C148.948 19.118 253.148 19.118 279.164 32.178C279.16 32.186 286.6 171.77 279.16 232.85Z" fill="#5777A8"/>
</svg>
