<svg width="298" height="361" viewBox="0 0 298 361" fill="none" xmlns="http://www.w3.org/2000/svg">
<path d="M294.183 15.102C265.135 0.494002 148.899 0.494003 148.899 0.494003C148.899 0.494003 33.0349 0.494002 4.07092 15.102C4.07092 15.102 -4.20508 170.77 4.07092 238.882C7.42292 266.318 31.5469 291.394 59.2309 311.546C100.195 341.422 148.899 360.498 148.899 360.498C148.899 360.498 213.451 335.298 256.611 297.434C276.307 280.178 291.575 260.234 294.183 238.882C302.459 170.77 294.183 15.102 294.183 15.102ZM279.163 232.842C277.591 245.794 270.847 258.126 261.163 269.546C261.535 253.41 258.431 234.746 250.571 213.27C250.571 213.27 234.359 169.694 228.139 157.254C220.139 141.254 208.763 124.966 208.763 118.43C208.763 111.89 212.935 97.67 215.771 93.686C217.751 90.902 223.511 83.382 221.315 81.19C219.123 78.998 209.275 84.954 209.275 84.954C208.903 85.326 174.475 102.374 191.855 137.174C209.275 171.934 217.967 191.506 215.771 193.698C215.771 193.698 163.591 172.662 139.675 198.734C122.007 218.018 126.007 230.222 126.007 234.57C126.007 238.918 133.139 319.826 215.771 267.606C215.771 267.606 207.083 319.826 154.903 319.826C102.723 319.826 102.723 269.794 102.723 269.794C102.723 269.794 104.091 224.97 126.983 194.042C160.139 149.25 168.139 129.25 168.279 120.094C168.683 94.03 164.139 85.25 164.139 85.25C164.139 85.25 154.903 47.998 114.679 57.806C114.679 57.806 84.2229 53.462 68.9949 81.722C68.9949 81.722 38.5829 103.446 53.7669 118.674C53.7669 118.674 52.6909 124.094 54.8829 126.286C57.0349 128.438 52.6909 119.75 57.0349 119.75C57.0349 119.75 63.5749 121.942 67.9189 119.75C72.2629 117.598 61.3789 124.094 63.5749 128.438C63.5749 128.438 53.7269 128.77 49.5869 132.906C47.5189 134.974 50.5389 143.666 46.1509 145.858C41.8069 148.01 35.3109 156.742 37.4629 161.086C37.4629 161.086 42.1789 153.43 46.1509 151.818C46.7709 151.57 47.4349 152.026 47.4349 152.686C47.4749 154.922 48.3029 159.926 54.8429 163.238C54.4709 162.826 50.4549 158.354 53.9309 152.026C55.6669 148.922 56.2469 145.282 55.9189 141.722C55.8349 140.854 55.7949 139.982 55.7949 139.114C55.7949 134.77 63.5749 132.826 63.5749 132.826C63.5749 132.826 78.8029 154.55 115.755 113.254C115.755 113.254 124.443 111.062 128.791 104.522C128.791 104.522 135.327 132.826 98.3789 174.122C98.3789 174.122 51.5389 224.686 55.2629 287.586C36.3949 271.614 21.5389 252.91 19.0989 232.842C11.6509 171.766 19.0989 32.194 19.0989 32.194C45.0429 19.118 148.947 19.118 148.947 19.118C148.947 19.118 253.139 19.118 279.167 32.194C279.163 32.194 286.611 171.766 279.163 232.842ZM203.811 229.57C203.811 229.57 169.011 253.486 162.515 238.258C162.515 238.258 160.323 227.374 175.551 225.222C190.779 223.034 203.811 229.57 203.811 229.57Z" fill="#5777A8"/>
</svg>
